# xmcd
#
# Track frame offsets:
# 150
# 18090
# 37111
# 53100
# 72066
# 89944
# 105023
# 123118
# 140875
# 161428
# 181825
# 200459
# 212912
# 229814
# 246461
# 264210
# 281969
# 302122
# 312504
# 325261
# 340165
#
# Disc length: 4787 seconds
#
#
# Revision: 1
# Processed by: cddbd v1.5.2PL0 Copyright (c) Steve Scherf et al.
# Submitted via: FreeRIP 2.96 
#
DISCID=3612b115
DTITLE=Variados - As Mais Tocadas do Pagode
DYEAR=1900
DGENRE=Pagode
TTITLE0=Luz das Estrela - Belo
TTITLE1=Estrela - ExaltaSamba
TTITLE2=Falta - Chrigor
TTITLE3=Carrocel - Gustavo Lins
TTITLE4=Encaixe Perfeito - Swing Simpatia
TTITLE5=Eternamente Feliz - Art Popular
TTITLE6=Não se sinta só - Os Travessos
TTITLE7=Cade Você - Sorriso Maroto
TTITLE8=Fã de carterinha - Pixote
TTITLE9=12 de Junho - Os Moleques
TTITLE10=Parceiro - Csa Nossa e Belo
TTITLE11=A genta pega fogo - TentaSamba
TTITLE12=Alo sou eu - Disfarce
TTITLE13=Quero Compromisso - Toque de Linha
TTITLE14=Quer Casar Comigo - Netinho de Paula
TTITLE15=Talvez - Revelação
TTITLE16=Você me vira a cabeça - Alcione
TTITLE17=Um Raro Prazer - Leci Brandão
TTITLE18=Goiabada Cascão - Dudo Nobre
TTITLE19=Vendi meu Peixe - Jorge Aragão
TTITLE20=O Penetra - Zeca Pagodinho
EXTD=
EXTT0=
EXTT1=
EXTT2=
EXTT3=
EXTT4=
EXTT5=
EXTT6=
EXTT7=
EXTT8=
EXTT9=
EXTT10=
EXTT11=
EXTT12=
EXTT13=
EXTT14=
EXTT15=
EXTT16=
EXTT17=
EXTT18=
EXTT19=
EXTT20=
PLAYORDER=
